<?xml version="1.0" standalone="no"?><svg xmlns="http://www.w3.org/2000/svg" viewBox="0 0 1440 320"><path fill="#0099ff" fill-opacity="1" d="M0,160L40,154.7C80,149,160,139,240,160C320,181,400,235,480,245.3C560,256,640,224,720,229.3C800,235,880,277,960,288C1040,299,1120,277,1200,261.3C1280,245,1360,235,1400,229.3L1440,224L1440,320L1400,320C1360,320,1280,320,1200,320C1120,320,1040,320,960,320C880,320,800,320,720,320C640,320,560,320,480,320C400,320,320,320,240,320C160,320,80,320,40,320L0,320Z"></path></svg>